HIERARCHY
ROOT root
{
	OFFSET 0.000000 0.000000 0.000000
	CHANNELS 6 Xposition Yposition Zposition Zrotation Yrotation Xrotation
	JOINT lhip
	{
		OFFSET 0.058581 -0.082280 -0.017664
		CHANNELS 3 Zrotation Yrotation Xrotation
		JOINT lknee
		{
			OFFSET 0.043451 -0.386469 0.008037
			CHANNELS 3 Zrotation Yrotation Xrotation
			JOINT lankle
			{
				OFFSET -0.014790 -0.426874 -0.037428
				CHANNELS 3 Zrotation Yrotation Xrotation
				JOINT ltoe
				{
					OFFSET 0.041054 -0.060286 0.122042
					CHANNELS 3 Zrotation Yrotation Xrotation
					End Site
					{
						OFFSET 0.000000 0.000000 0.000000
					}
				}
			}
		}
	}
	JOINT rhip
	{
		OFFSET -0.060310 -0.090513 -0.013543
		CHANNELS 3 Zrotation Yrotation Xrotation
		JOINT rknee
		{
			OFFSET -0.043257 -0.383688 -0.004843
			CHANNELS 3 Zrotation Yrotation Xrotation
			JOINT rankle
			{
				OFFSET 0.019056 -0.420046 -0.034562
				CHANNELS 3 Zrotation Yrotation Xrotation
				JOINT rtoe
				{
					OFFSET -0.034840 -0.062106 0.130323
					CHANNELS 3 Zrotation Yrotation Xrotation
					End Site
					{
						OFFSET 0.000000 0.000000 0.000000
					}
				}
			}
		}
	}
	JOINT lowerback
	{
		OFFSET 0.004439 0.124404 -0.038385
		CHANNELS 3 Zrotation Yrotation Xrotation
		JOINT upperback
		{
			OFFSET 0.004488 0.137956 0.026820
			CHANNELS 3 Zrotation Yrotation Xrotation
			JOINT chest
			{
				OFFSET -0.002265 0.056032 0.002855
				CHANNELS 3 Zrotation Yrotation Xrotation
				JOINT lowerneck
				{
					OFFSET -0.013390 0.211636 -0.033468
					CHANNELS 3 Zrotation Yrotation Xrotation
					JOINT upperneck
					{
						OFFSET 0.010113 0.088937 0.050410
						CHANNELS 3 Zrotation Yrotation Xrotation
						End Site
						{
							OFFSET 0.000000 0.000000 0.000000
						}
					}
				}
				JOINT lclavicle
				{
					OFFSET 0.071702 0.114000 -0.018898
					CHANNELS 3 Zrotation Yrotation Xrotation
					JOINT lshoulder
					{
						OFFSET 0.122921 0.045205 -0.019046
						CHANNELS 3 Zrotation Yrotation Xrotation
						JOINT lelbow
						{
							OFFSET 0.255332 -0.015649 -0.022946
							CHANNELS 3 Zrotation Yrotation Xrotation
							JOINT lwrist
							{
								OFFSET 0.265709 0.012698 -0.007375
								CHANNELS 3 Zrotation Yrotation Xrotation
								End Site
								{
									OFFSET 0.000000 0.000000 0.000000
								}
							}
						}
					}
				}
				JOINT rclavicle
				{
					OFFSET -0.082954 0.112472 -0.023707
					CHANNELS 3 Zrotation Yrotation Xrotation
					JOINT rshoulder
					{
						OFFSET -0.113228 0.046853 -0.008472
						CHANNELS 3 Zrotation Yrotation Xrotation
						JOINT relbow
						{
							OFFSET -0.260127 -0.014369 -0.031269
							CHANNELS 3 Zrotation Yrotation Xrotation
							JOINT rwrist
							{
								OFFSET -0.269108 0.006794 -0.006027
								CHANNELS 3 Zrotation Yrotation Xrotation
								End Site
								{
									OFFSET 0.000000 0.000000 0.000000
								}
							}
						}
					}
				}
			}
		}
	}
}
MOTION
Frames: 9
Frame Time: 0.033333
0.353970 0.173500 0.993900 87.744350 0.365751 90.605717 7.497170 4.281783 3.117214 -4.127894 -1.544470 -1.555996 0.000201 8.538816 -4.558259 0.000000 -0.000000 0.000000 -7.352719 -3.271613 -0.456932 1.875371 -0.841249 3.119624 5.332662 -4.351618 -6.340541 0.000000 -0.000000 0.000000 -5.405488 3.235136 -6.837935 2.205782 -2.000973 13.044155 0.186491 1.053038 -4.848680 4.553657 5.103506 4.671146 4.757460 -1.763750 -4.464462 -25.620669 0.028533 -0.512233 -52.255630 -3.766811 16.182399 3.635811 -24.677677 6.917604 -8.356446 -14.913781 9.661285 28.572463 4.667361 6.440955 54.225680 1.908939 13.523238 -10.584665 26.584137 -4.964769 3.400581 10.960185 -0.429603 
0.354314 0.173436 0.993873 87.723567 0.392552 90.567816 7.505130 4.231502 3.222398 -4.093658 -1.555684 -1.618497 -0.051326 8.600322 -4.586933 0.000000 -0.000000 0.000000 -7.301750 -3.236447 -0.387555 1.831567 -0.761342 3.108302 5.364725 -4.415761 -6.375715 0.000000 -0.000000 0.000000 -5.319773 3.160202 -6.754663 2.084982 -1.882065 12.686729 0.212763 1.151162 -4.653475 4.497735 4.982533 4.364633 4.767892 -1.796181 -4.077455 -25.404333 -0.071629 -0.440007 -52.381240 -3.753145 15.917975 3.683801 -24.833219 7.071517 -8.479817 -14.882582 9.745442 28.274807 4.659300 6.555318 54.644953 1.985801 13.441078 -10.769790 26.663138 -4.878173 3.536710 10.947129 -0.483078 
0.354526 0.173433 0.993945 87.739004 0.409556 90.559035 7.532481 4.217779 3.265329 -4.121343 -1.561105 -1.653789 -0.028883 8.597643 -4.597174 0.000000 -0.000000 0.000000 -7.296001 -3.230686 -0.341275 1.847010 -0.785973 3.074533 5.376945 -4.419394 -6.374485 0.000000 -0.000000 0.000000 -5.291763 3.144560 -6.748985 2.028903 -1.826604 12.533896 0.211867 1.154955 -4.574926 4.524361 4.995026 4.287511 4.754985 -1.754363 -4.082858 -25.247619 -0.069996 -0.398875 -52.470099 -3.765361 15.843651 3.781218 -25.058256 7.144828 -8.485892 -14.832430 9.625249 28.107014 4.689646 6.608175 54.889967 2.024295 13.431526 -10.859986 26.789198 -4.832017 3.543432 10.904954 -0.675291 
0.354773 0.173516 0.994024 87.818010 0.436660 90.565456 7.537498 4.179082 3.294550 -4.087744 -1.574453 -1.718454 -0.024948 8.579564 -4.636979 0.000000 -0.000000 0.000000 -7.266434 -3.250607 -0.313598 1.843191 -0.790894 3.076498 5.393920 -4.443850 -6.397302 0.000000 -0.000000 0.000000 -5.305264 3.148936 -6.691515 2.008824 -1.797979 12.242170 0.233959 1.147629 -4.448928 4.533985 4.939408 4.221771 4.800419 -1.785759 -4.272843 -25.152180 -0.013537 -0.471733 -52.500256 -3.808428 15.818261 3.922606 -25.286528 7.205423 -8.482857 -14.787230 9.490352 27.996425 4.672711 6.566856 55.004911 1.988127 13.482664 -10.921644 27.003425 -4.690573 3.531261 10.844720 -0.817646 
0.354859 0.173539 0.994064 87.836916 0.443227 90.546633 7.543602 4.176795 3.343356 -4.085819 -1.603202 -1.755936 -0.021957 8.571662 -4.629120 0.000000 -0.000000 0.000000 -7.258018 -3.251920 -0.272048 1.837161 -0.792244 3.057113 5.404349 -4.450897 -6.404642 0.000000 -0.000000 0.000000 -5.308257 3.147227 -6.642940 1.995819 -1.779311 12.131770 0.243186 1.150783 -4.406054 4.510995 4.896162 4.201746 4.810620 -1.760739 -4.324614 -25.123320 -0.006589 -0.461455 -52.489725 -3.794761 15.804269 3.953993 -25.396553 7.216929 -8.382270 -14.731298 9.394635 27.949142 4.690997 6.558254 55.053501 1.963778 13.498237 -10.927734 27.059536 -4.657360 3.516325 10.844120 -0.949361 
0.355105 0.173627 0.994150 87.875497 0.439333 90.534512 7.529624 4.168907 3.429516 -4.074640 -1.657850 -1.856352 -0.024446 8.551509 -4.619282 0.000000 -0.000000 0.000000 -7.263814 -3.247430 -0.204231 1.823988 -0.823690 3.017842 5.426000 -4.449260 -6.395352 0.000000 -0.000000 0.000000 -5.356723 3.163023 -6.614849 1.981335 -1.737236 11.994069 0.282501 1.149303 -4.356530 4.487370 4.945603 4.163301 4.813036 -1.705088 -4.407797 -25.115006 -0.040815 -0.427445 -52.436938 -3.788477 15.731156 4.040076 -25.580270 7.227282 -8.434252 -14.709155 9.368878 27.912703 4.720480 6.579335 55.096807 1.856805 13.468324 -11.027506 27.300044 -4.658028 3.555523 10.838514 -1.035980 
0.355281 0.173783 0.994218 87.915049 0.421986 90.525892 7.520780 4.205047 3.451705 -4.101214 -1.739524 -1.886121 0.039736 8.553908 -4.607004 0.000000 -0.000000 0.000000 -7.295779 -3.313103 -0.175909 1.850255 -0.762239 2.991437 5.397023 -4.478166 -6.410317 0.000000 -0.000000 0.000000 -5.283872 3.161047 -6.580715 1.951332 -1.699785 11.929929 0.180626 1.073087 -4.353452 4.434899 4.931617 4.068815 4.765378 -1.626804 -4.412628 -25.196774 0.057499 -0.591146 -52.201965 -3.784702 15.748385 3.969779 -25.884257 7.184057 -8.554846 -14.432146 9.115837 27.887581 4.367764 6.320644 55.030630 2.039132 13.465258 -10.720302 27.423577 -4.418115 3.840022 10.623343 -0.802097 
0.355422 0.173865 0.994236 87.968123 0.445301 90.537119 7.561901 4.195729 3.441912 -4.141500 -1.785358 -1.919655 0.044981 8.566040 -4.594093 0.000000 -0.000000 0.000000 -7.285098 -3.354675 -0.166418 1.876739 -0.718372 2.965216 5.432518 -4.502117 -6.408532 0.000000 -0.000000 0.000000 -5.236401 3.133978 -6.538409 1.964828 -1.686231 11.628393 0.170600 0.946312 -4.073066 4.290250 4.950932 3.804746 4.736902 -1.489202 -4.346107 -25.315036 0.311867 -0.753879 -52.029305 -3.937888 15.588234 3.925899 -25.704554 7.549191 -8.554791 -14.837680 9.062065 27.951649 3.621666 5.837245 54.748649 2.464541 13.247098 -10.152760 27.609295 -3.252571 4.068216 10.450346 -0.371635 
0.355658 0.173918 0.994282 88.003122 0.451637 90.509910 7.556310 4.163799 3.477347 -4.119304 -1.788362 -1.928643 0.044883 8.570387 -4.603870 0.000000 -0.000000 0.000000 -7.276453 -3.359155 -0.095910 1.864814 -0.753645 2.918811 5.446190 -4.513373 -6.380890 0.000000 -0.000000 0.000000 -5.256060 3.160550 -6.500598 1.973944 -1.679673 11.591841 0.178926 0.964364 -4.065726 4.235657 4.956029 3.780505 4.770530 -1.472554 -4.458401 -25.344029 0.280691 -0.747998 -51.944181 -3.952498 15.535406 3.941921 -25.717189 7.592923 -8.645899 -14.913927 9.095643 27.963613 3.537371 5.823140 54.660171 2.495563 13.143267 -10.047181 27.692294 -3.030505 4.143031 10.470547 -0.358091 
